<?xml version="1.0" encoding="utf-8"?>
<!-- Generator: Adobe Illustrator 16.0.0, SVG Export Plug-In . SVG Version: 6.00 Build 0)  -->
<!DOCTYPE svg PUBLIC "-//W3C//DTD SVG 1.1//EN" "http://www.w3.org/Graphics/SVG/1.1/DTD/svg11.dtd">
<svg version="1.1" id="Layer_1" xmlns="http://www.w3.org/2000/svg" xmlns:xlink="http://www.w3.org/1999/xlink" x="0px" y="0px"
	 width="640px" height="1136px" viewBox="0 0 640 1136" enable-background="new 0 0 640 1136" xml:space="preserve">
<g>
	<path fill="#25B0E6" d="M320,343c-80.082,0-145,64.919-145,145c0,80.082,64.918,145,145,145s145-64.918,145-145
		C465,407.919,400.082,343,320,343z M320,628c-77.32,0-140-62.68-140-140s62.68-140,140-140c77.32,0,140,62.68,140,140
		S397.32,628,320,628z"/>
	<path fill="#25B0E6" d="M0,0v1136h640V0H0z M320,638c-82.843,0-150-67.157-150-150s67.157-150,150-150c82.844,0,150,67.157,150,150
		S402.844,638,320,638z"/>
</g>
</svg>
