<?xml version="1.0" encoding="utf-8"?>
<!-- Generator: Adobe Illustrator 16.0.0, SVG Export Plug-In . SVG Version: 6.00 Build 0)  -->
<!DOCTYPE svg PUBLIC "-//W3C//DTD SVG 1.1//EN" "http://www.w3.org/Graphics/SVG/1.1/DTD/svg11.dtd">
<svg version="1.1" id="Layer_1" xmlns="http://www.w3.org/2000/svg" xmlns:xlink="http://www.w3.org/1999/xlink" x="0px" y="0px"
	 width="34px" height="34px" viewBox="0 0 34 34" enable-background="new 0 0 34 34" xml:space="preserve">
<path fill="none" stroke="#FFFFFF" stroke-width="2" stroke-miterlimit="10" d="M31.429,14.218c0-5.883-6.46-10.654-14.428-10.654
	c-7.969,0-14.43,4.771-14.43,10.654c0,4.749,4.209,8.774,10.022,10.149c0.079,0.018,0.15,0.063,0.2,0.128
	c0.933,1.176,2.953,3.501,6.072,5.89c0.08,0.062,0.19,0.068,0.277,0.014c0.084-0.054,0.127-0.154,0.104-0.252
	c-0.234-0.999-0.669-3.02-0.897-5.096c-0.008-0.064,0.013-0.128,0.055-0.177c0.041-0.049,0.1-0.08,0.164-0.084
	C25.798,24.208,31.429,19.707,31.429,14.218z"/>
</svg>
