<?xml version="1.0" encoding="utf-8"?>
<!-- Generator: Adobe Illustrator 16.0.0, SVG Export Plug-In . SVG Version: 6.00 Build 0)  -->
<!DOCTYPE svg PUBLIC "-//W3C//DTD SVG 1.1//EN" "http://www.w3.org/Graphics/SVG/1.1/DTD/svg11.dtd">
<svg version="1.1" id="Layer_1" xmlns="http://www.w3.org/2000/svg" xmlns:xlink="http://www.w3.org/1999/xlink" x="0px" y="0px"
	 width="34px" height="34px" viewBox="0 0 34 34" enable-background="new 0 0 34 34" xml:space="preserve">
<path fill="none" stroke="#FFFFFF" stroke-linecap="round" stroke-linejoin="round" stroke-miterlimit="10" d="M14.414,1h5.162
	c1.062,0,1.594,0.506,1.594,1.52v3.684c1.268,0.422,2.447,1.098,3.539,1.969l3.156-1.744c0.914-0.533,1.652-0.338,2.184,0.562
	l2.654,4.387c0.531,0.873,0.354,1.547-0.561,2.082l-3.215,1.742c0.059,0.479,0.088,0.955,0.117,1.434c0,0.111,0,0.225,0,0.338
	c0,0.703-0.059,1.35-0.176,1.998l3.244,1.799c0.443,0.225,0.707,0.506,0.826,0.814c0.088,0.254,0.059,0.562-0.061,0.9
	c-0.027,0.111-0.088,0.225-0.176,0.365l-2.654,4.387c-0.561,0.871-1.27,1.039-2.184,0.535l-3.334-1.828
	c-0.354,0.252-0.707,0.506-1.061,0.758c-0.738,0.422-1.506,0.789-2.301,1.07v3.711c0,1.012-0.531,1.518-1.594,1.518h-5.162
	c-1.061,0-1.593-0.506-1.593-1.518v-3.656c-1.269-0.449-2.447-1.096-3.54-1.967l-3.156,1.715c-0.914,0.506-1.651,0.336-2.183-0.535
	l-2.654-4.385c-0.03-0.086-0.06-0.143-0.09-0.17c-0.413-0.816-0.176-1.434,0.679-1.912l3.217-1.771
	c-0.089-0.479-0.118-0.957-0.149-1.434c0-0.113,0-0.225,0-0.338c0-0.703,0.061-1.35,0.178-1.996L1.877,13.26
	c-0.441-0.252-0.707-0.533-0.796-0.842c-0.146-0.365-0.059-0.76,0.207-1.238l2.684-4.387C4.474,5.922,5.211,5.725,6.125,6.23
	l3.333,1.828c0.354-0.252,0.709-0.506,1.062-0.73c0.737-0.449,1.506-0.816,2.301-1.098V2.52C12.821,1.506,13.354,1,14.414,1
	L14.414,1z"/>
<path fill="none" stroke="#FFFFFF" stroke-linecap="round" stroke-linejoin="round" stroke-miterlimit="10" d="M16.986,11.686
	c-1.534,0-2.833,0.506-3.925,1.547c-1.091,1.041-1.622,2.305-1.622,3.768s0.531,2.701,1.622,3.74
	c1.092,1.039,2.391,1.574,3.925,1.574c1.533,0,2.83-0.535,3.924-1.574c1.09-1.039,1.65-2.277,1.65-3.74S22,14.273,20.91,13.232
	C19.816,12.191,18.52,11.686,16.986,11.686L16.986,11.686z"/>
</svg>
